<svg width="100%" height="100%" id="svg" viewBox="0 0 1440 600" xmlns="http://www.w3.org/2000/svg" class="transition duration-300 ease-in-out delay-150"><path d="M 0,600 C 0,600 0,200 0,200 C 47.833419657171035,194.94117647058823 95.66683931434207,189.8823529411765 148,180 C 200.33316068565793,170.1176470588235 257.1660623998027,155.41176470588235 310,173 C 362.8339376001973,190.58823529411765 411.6689110864471,240.47058823529414 468,250 C 524.3310889135529,259.52941176470586 588.1582932544087,228.70588235294116 652,206 C 715.8417067455913,183.29411764705884 779.6979158959182,168.70588235294116 823,180 C 866.3020841040818,191.29411764705884 889.0500431619189,228.47058823529412 935,237 C 980.9499568380811,245.52941176470588 1050.1019114564065,225.41176470588238 1105,202 C 1159.8980885435935,178.58823529411762 1200.5423110124552,151.88235294117646 1254,151 C 1307.4576889875448,150.11764705882354 1373.7288444937724,175.05882352941177 1440,200 C 1440,200 1440,600 1440,600 Z" stroke="none" stroke-width="0" fill="#ffffff88" class="transition-all duration-300 ease-in-out delay-150 path-0"></path><path d="M 0,600 C 0,600 0,400 0,400 C 49.30822542853619,360.09194721913923 98.61645085707238,320.18389443827846 148,326 C 197.38354914292762,331.81610556172154 246.84242200024664,383.35636946602534 296,411 C 345.15757799975336,438.64363053397466 394.013861141941,442.3906276976199 455,449 C 515.986138858059,455.6093723023801 589.1021334319892,465.0811197434949 642,474 C 694.8978665680108,482.9188802565051 727.5776051301023,491.2848933284006 778,460 C 828.4223948698977,428.7151066715994 896.5874460476015,357.7793069429029 959,367 C 1021.4125539523985,376.2206930570971 1078.0726106794918,465.5978788999876 1134,466 C 1189.9273893205082,466.4021211000124 1245.1221112344308,377.8291774571464 1296,352 C 1346.8778887655692,326.1708225428536 1393.4389443827845,363.0854112714268 1440,400 C 1440,400 1440,600 1440,600 Z" stroke="none" stroke-width="0" fill="#ffffffff" class="transition-all duration-300 ease-in-out delay-150 path-1"></path></svg>